<svg id="Layer_1" data-name="Layer 1" xmlns="http://www.w3.org/2000/svg" xmlns:xlink="http://www.w3.org/1999/xlink" viewBox="0 0 792 792"><defs><style>.cls-1{fill:url(#linear-gradient);}.cls-2{fill:url(#linear-gradient-2);}.cls-3{fill:#231f20;}.cls-4{fill:#95979a;}</style><linearGradient id="linear-gradient" x1="785.45" y1="784.34" x2="6.89" y2="7.99" gradientUnits="userSpaceOnUse"><stop offset="0.5" stop-color="#231f20"/><stop offset="0.5" stop-color="#9b9da0"/></linearGradient><linearGradient id="linear-gradient-2" x1="10.05" y1="9.01" x2="782.18" y2="783.22" gradientUnits="userSpaceOnUse"><stop offset="0.5" stop-color="#231f20"/><stop offset="0.5" stop-color="#828487"/></linearGradient></defs><title>Artboard 1</title><path class="cls-1" d="M0,0V792H792V0ZM774,774H18V18H774Z"/><path class="cls-2" d="M18,18V774H774V18ZM738.86,738.86H53.14V53.14H738.86Z"/><path class="cls-3" d="M774,774c-1.76-1.17-3.43-2.43-5.11-3.68l-4.38-4.4-8.79-8.78-8.78-8.79-4.4-4.39c-1.25-1.68-2.5-3.36-3.68-5.1,1.74,1.18,3.42,2.43,5.1,3.68l4.39,4.4,8.79,8.78,8.78,8.79,4.4,4.38C771.57,770.57,772.83,772.24,774,774Z"/><path class="cls-4" d="M792,792c-1-.46-2-1-3-1.54l-2.25-2.25-4.5-4.5-4.5-4.5L775.54,777c-.53-1-1.07-1.93-1.54-3,1,.47,2,1,3,1.54l2.25,2.25,4.5,4.5,4.5,4.5,2.25,2.25C791,790,791.54,791,792,792Z"/><path class="cls-4" d="M53.14,53.14C51.38,52,49.71,50.72,48,49.46l-4.39-4.4-8.79-8.78-8.78-8.79L21.69,23.1C20.44,21.42,19.18,19.75,18,18c1.75,1.18,3.42,2.44,5.1,3.69l4.39,4.39,8.79,8.78,8.78,8.79L49.46,48C50.72,49.71,52,51.38,53.14,53.14Z"/><path class="cls-3" d="M0,0C1,.46,2,1,3,1.54L5.21,3.79l4.5,4.5,4.5,4.5L16.46,15C17,16,17.53,17,18,18c-1-.47-2-1-3-1.54l-2.25-2.25-4.5-4.5-4.5-4.5L1.54,3C1,2,.46,1,0,0Z"/></svg>