<svg id="Mouse_Icon" data-name="Mouse Icon" xmlns="http://www.w3.org/2000/svg" viewBox="0 0 792 792"><defs><style>.cls-1{fill:#fbb040;}.cls-2,.cls-3{fill:none;stroke-miterlimit:10;}.cls-2{stroke:#fff;stroke-width:19px;}.cls-3{stroke:#231f20;stroke-width:9px;}</style></defs><title>Artboard 1</title><path class="cls-1" d="M242.19,472.49c-24.56-50.6-17-32.95-39.88-89.47-16.44-40.57-32-84.74-21.58-127.26,6.63-27.12,23.16-50.4,41.29-71.09,18.71-21.34,29.88-24.42,29.88-24.42l-2.83,3.08,57.67,68.07-.81-2.17c-14.16,11.15-8.38,27.46.31,39.59l26.54,37.08c2.77,3.88,6.12,8.1,10.86,8.6,4.15.43,11.94-5.18,15.29-7.66l.81-.85,61.56,78,.51,2c-53.66,36.38-118.26,70.43-181.08,86.43Z"/><g id="Layer_5" data-name="Layer 5"><path class="cls-2" d="M180.73,255.76c-10.41,42.52,5.14,86.69,21.58,127.26,22.9,56.52,48.32,112.66,84.88,161.47,24.94,33.31,55.8,63.48,94,80,41.29,17.83,89.34,18.25,131.78,3.38s79.18-44.48,104.76-81.47C637,518.53,650.32,485.79,651,451.94c.83-41.72-17.24-81.38-37.55-117.83-36.73-65.9-84-128.71-149.4-166.3-41.19-23.66-90.15-35.58-137.59-30.69C288.4,141,247.53,155.38,222,184.67,204,205.41,187.36,228.64,180.73,255.76Z"/><path class="cls-2" d="M240.73,472.41c62.82-16,121.42-46.05,175.08-82.43s102.7-79.11,150.87-122.51"/><path class="cls-2" d="M306.24,268.82l26.54,37.08c2.77,3.88,6.12,8.1,10.86,8.6,4.15.43,7.94-2.18,11.29-4.66,8.66-6.4,18.31-15,16.78-25.67-.82-5.75-4.84-10.46-8.7-14.82l-25.49-28.84c-7.44-8.41-20.19-20.26-31.59-11.28C291.77,240.38,297.55,256.69,306.24,268.82Z"/><path class="cls-2" d="M249.07,163.33l57.67,68.07"/><path class="cls-2" d="M359.74,306l61.56,78"/></g><g id="Layer_6" data-name="Layer 6"><path class="cls-3" d="M180.73,255.76c-10.41,42.52,5.14,86.69,21.58,127.26,22.9,56.52,48.32,112.66,84.88,161.47,24.94,33.31,55.8,63.48,94,80,41.29,17.83,89.34,18.25,131.78,3.38s79.18-44.48,104.76-81.47C637,518.53,650.32,485.79,651,451.94c.83-41.72-17.24-81.38-37.55-117.83-36.73-65.9-84-128.71-149.4-166.3-41.19-23.66-90.15-35.58-137.59-30.69C288.4,141,247.53,155.38,222,184.67,204,205.41,187.36,228.64,180.73,255.76Z"/><path class="cls-3" d="M240.73,472.41c62.82-16,121.42-46.05,175.08-82.43s102.7-79.11,150.87-122.51"/><path class="cls-3" d="M306.24,268.82l26.54,37.08c2.77,3.88,6.12,8.1,10.86,8.6,4.15.43,7.94-2.18,11.29-4.66,8.66-6.4,18.31-15,16.78-25.67-.82-5.75-4.84-10.46-8.7-14.82l-25.49-28.84c-7.44-8.41-20.19-20.26-31.59-11.28C291.77,240.38,297.55,256.69,306.24,268.82Z"/><path class="cls-3" d="M249.07,163.33l57.67,68.07"/><path class="cls-3" d="M359.74,306l61.56,78"/></g></svg>